# xmcd
#
# Track frame offsets: 
#        150
#        24488
#        36933
#        60282
#        78099
#        94434
#        114187
#        128364
#        146060
#        164087
#        180546
#        198681
#        215518
#        240787
#        261634
#        277086
#        295269
#        320630
#        334730
#
# Disc length: 4775 seconds
#
# Revision: 0
# Processed by: cddbd v1.5.2PL0 Copyright (c) Steve Scherf et al.
# Submitted via: ExactAudioCopy v1.3
#
DISCID=1b12a513
DTITLE=Various Artist - Akella Presents - vol.210 - Blues-Relax  CD1
DYEAR=2019
DGENRE=Blues
TTITLE0=King Of the World - Saving Grace
TTITLE1=My My Snake Eyes - The Darkness Of The Light
TTITLE2=J.P. Soars - Lonely Fire
TTITLE3=Steve Morgan - Bluesy Cafe
TTITLE4=Malted Milk - Pay Day
TTITLE5=Dave P.Moore - Welcome Here Always
TTITLE6=Ruthie Foster - Ring Of Fire
TTITLE7=Boom-Boom - The Devil In Me
TTITLE8=Nils Lofgren - Too Blue to Play
TTITLE9=Chantel McGregor - Rhiannon
TTITLE10=Habaka - Strange Fruit
TTITLE11=The Mike Eldred Trio - Roadside Shrine
TTITLE12=Billy Hector - Just Why
TTITLE13=Seth James - From Way Behind
TTITLE14=Sahra da Silva - Change My Ways
TTITLE15=Delbert McClinton - You Were Never Mine
TTITLE16=Doug Deming - Put It Down
TTITLE17=The Stone Foxes - Battles, Blades and Bones
TTITLE18=Michele McCain - Let Love Go
EXTD=
EXTT0=
EXTT1=
EXTT2=
EXTT3=
EXTT4=
EXTT5=
EXTT6=
EXTT7=
EXTT8=
EXTT9=
EXTT10=
EXTT11=
EXTT12=
EXTT13=
EXTT14=
EXTT15=
EXTT16=
EXTT17=
EXTT18=
PLAYORDER=
